<svg width="19" height="19" viewBox="0 0 19 19" fill="black" xmlns="http://www.w3.org/2000/svg">
<path d="M18.0758 15.5713L3.46978 0.866208C2.98493 0.378073 2.19706 0.378073 1.77282 0.866208C1.28797 1.35434 1.28797 2.14757 1.77282 2.57469L16.3789 17.2798C16.6213 17.5238 16.9243 17.6459 17.2274 17.6459C17.5304 17.6459 17.8334 17.5238 18.0758 17.2798C18.5607 16.7916 18.5607 16.0594 18.0758 15.5713Z" fill="black"/>
<path d="M3.53033 17.2798L18.1364 2.57469C18.6212 2.08656 18.6212 1.29333 18.1364 0.866208C17.6515 0.378073 16.8637 0.378073 16.4394 0.866208L1.83335 15.5713C1.59092 15.8153 1.46973 16.1204 1.46973 16.4255C1.46973 16.7306 1.59092 17.0357 1.83335 17.2798C2.25759 17.7679 3.04548 17.7679 3.53033 17.2798Z" fill="black"/>
<path opacity="0.2" d="M0.5 17.2798C0.5 17.5849 0.621216 17.89 0.86364 18.134C1.34849 18.6222 2.13636 18.6222 2.5606 18.134L8.98485 11.6663L15.4091 18.134C15.6515 18.3781 15.9545 18.5002 16.2576 18.5002C16.5606 18.5002 16.8636 18.3781 17.1061 18.134C17.5909 17.6459 17.5909 16.8527 17.1061 16.4256L10.6818 9.95778L17.1061 3.48999C17.5909 3.00185 17.5909 2.20862 17.1061 1.7815C16.6212 1.29337 15.8333 1.29337 15.4091 1.7815L8.98485 8.2493L2.5606 1.7205C2.07575 1.23237 1.28788 1.23237 0.86364 1.7205C0.378792 2.20864 0.378792 3.00185 0.86364 3.42897L7.28787 9.89676L0.86364 16.3646C0.621216 16.6696 0.5 16.9747 0.5 17.2798Z" fill="black"/>
</svg>